<?xml version="1.0" standalone="no"?>
<!DOCTYPE svg PUBLIC "-//W3C//DTD SVG 20010904//EN"
 "http://www.w3.org/TR/2001/REC-SVG-20010904/DTD/svg10.dtd">
<svg version="1.0" xmlns="http://www.w3.org/2000/svg"
 width="1113.000000pt" height="1113.000000pt" viewBox="0 0 1113.000000 1113.000000"
 preserveAspectRatio="xMidYMid meet">
<metadata>
Created by potrace 1.11, written by Peter Selinger 2001-2013
</metadata>
<g transform="translate(0.000000,1113.000000) scale(0.100000,-0.100000)"
fill="#000000" stroke="none">
<path d="M8270 11059 c-67 -74 -234 -303 -278 -379 -17 -30 -60 -85 -94 -121
-35 -36 -90 -104 -123 -151 -34 -46 -66 -83 -71 -81 -11 4 -107 -99 -104 -112
1 -10 -24 -32 -46 -39 -11 -3 -29 -25 -41 -49 -11 -23 -51 -84 -89 -134 l-69
-92 -40 37 c-51 48 -99 84 -150 109 -101 52 -256 78 -345 59 -19 -4 -48 -7
-65 -6 -16 1 -73 2 -125 3 -105 1 -133 -9 -222 -76 -25 -19 -55 -40 -68 -47
-22 -12 -50 -34 -104 -83 -110 -100 -165 -165 -206 -244 -21 -40 -40 -56 -40
-33 0 5 -33 43 -72 83 -105 105 -153 159 -161 180 -3 9 -17 22 -31 28 -13 6
-30 23 -37 38 -8 14 -25 35 -38 46 -42 35 -53 50 -118 177 -139 266 -260 506
-286 565 -14 34 -31 64 -36 68 -17 10 -32 -34 -26 -78 15 -107 38 -218 57
-277 12 -35 22 -92 24 -125 1 -34 12 -86 23 -115 11 -30 19 -56 16 -58 -2 -3
-16 10 -31 27 -33 39 -48 31 -40 -23 4 -22 9 -56 11 -73 3 -18 16 -57 30 -87
14 -30 25 -61 25 -68 0 -7 11 -34 24 -60 21 -44 22 -48 5 -48 -16 0 -13 -12
23 -102 70 -178 77 -198 67 -198 -23 0 -1 -63 49 -140 9 -14 15 -34 14 -45 -2
-11 16 -47 38 -79 36 -51 39 -61 26 -68 -9 -5 -16 -17 -16 -27 0 -25 53 -96
116 -156 43 -42 50 -54 42 -69 -11 -20 -15 -102 -5 -112 3 -3 17 -7 31 -8 14
0 26 -3 27 -6 0 -3 2 -24 4 -46 l5 -42 -108 -37 c-59 -21 -163 -58 -232 -83
-69 -24 -147 -51 -174 -59 -71 -21 -151 -58 -173 -80 -76 -76 -79 -126 -12
-189 23 -22 59 -56 80 -77 37 -36 106 -74 116 -64 2 3 -11 10 -30 16 -19 7
-43 21 -53 33 -19 21 -19 21 1 13 64 -25 93 -34 113 -35 15 0 22 -5 19 -12 -2
-7 -12 -12 -21 -12 -12 1 -14 -2 -7 -10 7 -8 0 -29 -24 -69 -19 -31 -30 -57
-25 -57 5 0 9 -17 9 -37 -1 -21 6 -54 14 -73 8 -19 18 -52 21 -74 6 -36 29
-78 68 -120 19 -21 19 -20 -40 -113 l-13 -21 -35 33 c-19 19 -44 54 -55 79
-20 45 -34 62 -23 29 14 -44 31 -71 67 -110 l39 -41 -23 -61 c-13 -34 -28 -61
-34 -60 -27 2 -103 60 -128 97 -15 23 -51 63 -79 89 -29 27 -72 68 -97 92 -99
96 -152 141 -166 141 -20 0 -31 -65 -16 -94 7 -12 46 -56 86 -98 67 -69 89
-103 109 -166 6 -19 4 -20 -31 -15 -21 3 -53 14 -72 25 -30 17 -89 29 -216 44
-22 2 -67 19 -101 36 -35 18 -68 29 -77 25 -28 -11 -20 -52 18 -90 43 -43 103
-72 183 -87 34 -7 67 -19 73 -26 6 -8 17 -14 24 -14 17 0 25 -36 12 -49 -6 -6
-19 -11 -29 -11 -51 0 -112 -27 -168 -76 -50 -44 -145 -94 -179 -94 -5 0 -15
-7 -22 -16 -11 -14 -10 -19 9 -35 18 -14 36 -17 80 -15 47 2 68 10 121 44 35
23 74 42 87 42 l23 0 -32 -72 c-43 -101 -70 -142 -114 -175 -49 -36 -55 -45
-39 -61 19 -19 78 -6 126 29 22 16 60 57 85 92 25 34 50 68 55 74 8 10 23 3
63 -27 60 -46 118 -67 202 -75 34 -3 71 -13 85 -24 14 -10 37 -21 51 -24 23
-6 114 -85 247 -215 l45 -43 -54 -36 c-56 -37 -220 -123 -235 -123 -5 0 -22
-7 -38 -15 -26 -14 -30 -13 -56 5 -34 24 -173 85 -221 96 -18 4 -38 9 -44 10
-5 2 -23 6 -40 9 -16 3 -36 8 -43 10 -34 12 -283 16 -352 6 -171 -26 -199 -32
-205 -40 -2 -4 -32 -9 -67 -11 -165 -7 -175 -9 -184 -46 -13 -53 19 -102 85
-130 49 -21 86 -25 113 -15 12 6 18 10 11 10 -21 2 -43 32 -43 60 0 48 32 66
114 66 59 -1 81 -6 133 -32 76 -39 164 -99 223 -153 37 -34 41 -40 20 -34 -14
4 -29 7 -35 6 -5 -1 -59 -3 -120 -6 -112 -5 -169 -18 -163 -37 3 -10 25 -23
81 -50 17 -8 27 -20 27 -35 0 -16 12 -28 48 -45 40 -20 47 -28 47 -53 0 -23 7
-32 32 -45 54 -26 63 -21 -221 -136 l-110 -45 -50 25 c-48 23 -53 24 -98 10
-70 -21 -86 -32 -108 -76 -30 -58 -65 -76 -145 -73 -79 3 -110 -7 -150 -48
-67 -70 -310 -204 -467 -258 -68 -24 -105 -44 -137 -73 -38 -35 -47 -39 -80
-33 -20 3 -44 6 -53 6 -10 0 -30 18 -44 40 -53 79 -13 183 92 245 l45 26 -21
32 c-11 18 -30 49 -42 70 -12 20 -28 37 -36 37 -8 0 -20 7 -26 15 -6 9 -31 17
-56 20 -41 3 -53 -1 -130 -53 -47 -31 -98 -68 -114 -82 -62 -55 -97 -153 -82
-233 3 -18 22 -60 41 -92 20 -32 34 -59 32 -61 -1 -1 -16 3 -32 10 -29 12 -89
34 -110 40 -5 2 -17 6 -25 9 -84 35 -235 85 -240 79 -3 -5 -20 -30 -39 -57
-19 -28 -39 -53 -44 -56 -5 -4 -62 -23 -126 -44 -64 -21 -170 -55 -236 -77
-66 -22 -127 -41 -135 -43 -241 -56 -289 -63 -430 -60 -125 2 -152 6 -237 36
-31 10 -58 19 -60 19 -12 0 64 -94 107 -133 69 -62 197 -104 310 -101 128 3
197 8 225 16 17 5 46 11 65 14 73 11 274 67 474 131 106 35 146 60 174 109 6
11 14 14 23 8 8 -5 19 -9 24 -10 6 -1 43 -17 84 -36 l74 -34 -31 -23 c-17 -12
-68 -35 -112 -51 -67 -24 -93 -29 -145 -25 -34 2 -67 5 -73 7 -5 2 -26 -14
-46 -34 -47 -48 -113 -79 -496 -233 -315 -126 -582 -249 -657 -302 -114 -81
-161 -123 -234 -211 -86 -103 -143 -192 -131 -204 20 -19 382 -30 507 -14 33
4 83 9 110 12 71 8 130 28 292 100 135 61 222 104 526 263 155 82 236 113 287
110 94 -3 93 -4 124 62 16 34 43 77 59 96 27 31 125 89 166 98 9 2 43 15 76
29 32 13 62 23 65 21 7 -5 6 -25 -3 -70 -3 -16 -9 -48 -12 -70 -17 -133 -19
-136 -69 -129 -17 2 -44 6 -61 8 -21 2 -55 -10 -115 -42 -47 -24 -123 -65
-170 -90 -47 -24 -116 -62 -153 -83 -38 -22 -72 -39 -77 -39 -4 0 -61 -35
-126 -79 -225 -149 -318 -253 -365 -406 -24 -78 -31 -179 -16 -234 5 -18 10
-42 12 -53 10 -48 49 -158 56 -158 5 0 9 3 9 8 0 4 7 37 15 75 29 137 104 269
200 352 166 143 503 347 765 465 58 25 62 26 248 14 l92 -6 1 58 c0 33 2 68 5
79 2 11 6 40 9 65 3 25 7 56 10 70 2 14 7 55 10 91 3 37 10 81 14 97 5 17 7
33 3 36 -3 3 0 6 7 6 7 0 30 -13 50 -28 131 -103 330 -164 513 -158 81 3 94 6
180 49 111 55 239 125 252 137 6 6 0 47 -13 105 -19 76 -27 95 -41 95 -10 0
-20 8 -23 19 -2 10 -30 32 -62 49 l-57 31 -84 -39 c-84 -39 -173 -69 -222 -75
-38 -4 -140 13 -171 29 -35 19 -154 114 -164 132 -15 27 13 46 62 42 42 -2 52
2 111 46 36 26 98 63 137 82 96 44 285 103 350 108 64 5 65 5 104 66 40 62 73
77 133 60 40 -11 47 -10 96 15 30 15 71 45 92 66 21 22 43 39 48 39 6 0 29 9
53 20 88 40 371 159 373 157 2 -1 -27 -22 -63 -47 -157 -106 -388 -384 -477
-575 -26 -55 -51 -107 -56 -117 -15 -28 -45 -152 -56 -233 -3 -22 -14 -53 -24
-70 -26 -44 -49 -118 -55 -180 -6 -61 9 -103 47 -129 31 -22 104 -20 155 5 70
34 108 99 54 91 -41 -6 -79 18 -101 63 -23 48 -33 161 -20 223 11 46 66 99
176 165 77 48 246 113 263 102 5 -3 -15 -53 -45 -112 -30 -58 -52 -108 -50
-111 3 -2 -4 -23 -16 -46 -16 -31 -22 -63 -24 -131 -2 -70 0 -85 8 -65 41 98
84 145 141 155 19 4 42 18 53 33 10 14 34 40 52 58 30 29 38 32 75 28 23 -3
53 -5 66 -6 22 0 23 -2 15 -41 -11 -54 -11 -277 -1 -340 13 -80 52 -189 116
-322 34 -69 61 -129 61 -134 0 -5 -12 -9 -27 -9 -65 1 -245 -91 -291 -148 -66
-83 -85 -112 -99 -146 -8 -20 -34 -53 -58 -72 -54 -45 -126 -118 -235 -237
-47 -52 -116 -125 -154 -164 -85 -87 -119 -136 -110 -159 9 -24 48 -37 92 -30
36 5 173 32 202 40 70 18 131 34 160 43 55 17 64 15 46 -11 -9 -12 -16 -30
-16 -39 0 -9 -23 -54 -51 -100 -51 -85 -184 -339 -206 -394 -57 -144 -73 -269
-48 -364 7 -28 12 -51 10 -51 -8 0 48 -116 76 -156 79 -115 121 -134 227 -100
49 16 19 -15 -45 -45 -76 -36 -141 -97 -197 -185 -28 -42 -56 -71 -95 -96 -65
-41 -206 -115 -271 -143 -43 -18 -123 -67 -146 -90 -6 -5 -27 -23 -47 -39 -34
-28 -36 -31 -21 -47 35 -39 216 -83 371 -91 29 -2 53 -7 54 -13 8 -89 12 -113
24 -132 12 -17 12 -23 1 -32 -7 -6 -13 -28 -13 -49 0 -70 -63 -165 -282 -427
-91 -110 -177 -416 -141 -509 34 -92 147 -116 283 -61 91 37 162 88 252 180
94 97 141 170 155 245 10 53 22 198 21 250 -2 47 28 128 54 147 16 11 27 30
29 48 3 28 6 30 40 27 26 -3 51 5 90 28 l55 31 14 -23 c8 -13 31 -50 52 -83
62 -99 133 -182 165 -193 38 -14 41 -8 45 81 1 40 6 106 10 147 10 93 10 144
1 341 -8 149 -7 158 14 200 20 39 22 54 18 150 l-5 106 46 40 c25 21 82 65
126 97 148 107 275 261 318 386 9 25 30 90 47 145 17 55 44 123 60 150 16 28
39 68 51 90 12 22 38 62 59 90 20 27 39 56 41 62 9 28 120 130 243 222 185
138 282 227 354 320 26 33 26 33 42 13 19 -23 72 -52 95 -52 8 0 15 7 15 15 0
17 9 19 29 6 7 -5 11 -13 8 -17 -10 -17 22 -74 48 -84 15 -6 30 -10 35 -10 5
0 10 37 13 83 4 89 5 93 31 152 39 89 68 193 73 261 6 71 6 72 32 68 80 -14
146 -50 210 -114 l40 -41 38 20 c92 48 134 120 134 231 0 59 -5 80 -31 132
-48 94 -44 93 -108 29 -64 -63 -111 -86 -138 -67 -15 11 -14 15 8 48 102 157
196 363 223 496 11 52 48 37 59 -23 7 -39 44 -74 82 -78 50 -6 100 -51 109
-99 5 -22 24 -40 71 -62 16 -8 36 -27 44 -41 7 -14 17 -25 21 -25 4 0 32 -16
62 -36 43 -28 56 -43 61 -68 11 -56 89 -119 159 -128 15 -2 49 -20 75 -39 47
-36 111 -64 121 -54 3 3 -20 56 -52 117 -40 80 -53 115 -46 124 6 7 11 35 11
64 1 47 -2 54 -40 93 -39 40 -41 45 -39 99 1 45 -4 64 -21 87 -12 17 -22 32
-22 34 0 2 64 3 143 1 197 -3 341 31 420 99 41 35 65 41 121 29 24 -5 50 -6
57 -2 34 21 44 212 15 269 -19 36 -36 49 -29 21 11 -43 -19 -113 -69 -161 -57
-55 -111 -83 -194 -99 -55 -11 -65 -10 -101 8 -66 34 -109 87 -172 212 -34 65
-61 122 -61 125 0 4 17 4 38 1 20 -4 57 -9 82 -11 93 -9 125 -13 143 -20 10
-4 17 -3 17 3 0 17 -41 82 -51 82 -5 0 -9 11 -9 25 0 16 -12 36 -32 54 -31 28
-32 31 -21 63 12 30 10 79 -3 100 -14 23 -55 28 -87 11 l-32 -16 27 -9 c31
-11 56 -65 34 -74 -8 -3 -50 13 -95 36 l-80 41 84 63 c46 35 98 80 116 101 28
32 36 36 68 31 20 -3 46 -5 59 -6 13 0 22 -6 22 -15 0 -8 8 -15 18 -15 14 0
15 2 2 10 -9 6 -10 10 -3 10 6 0 14 -4 17 -9 3 -4 19 -11 35 -14 47 -10 157
-67 190 -99 17 -16 51 -64 76 -106 66 -112 69 -116 83 -125 7 -5 10 -12 7 -17
-3 -5 0 -12 6 -16 8 -5 9 -3 3 7 -4 8 11 -2 34 -22 49 -42 143 -90 233 -118
91 -29 110 -32 244 -36 132 -4 130 -3 167 -82 27 -60 22 -120 -14 -173 -16
-23 -27 -44 -25 -47 3 -2 35 -15 71 -27 76 -27 128 -26 214 4 56 20 87 41 103
73 13 23 -34 107 -102 181 l-49 53 38 7 c91 15 183 80 224 160 25 49 20 123
-12 187 -28 53 -118 158 -164 189 -18 13 -39 37 -46 54 -7 17 -15 35 -18 39
-2 5 16 -3 42 -17 81 -45 286 -106 491 -146 130 -25 197 -59 252 -128 21 -25
49 -57 62 -71 108 -118 212 -389 216 -564 2 -48 5 -90 8 -93 17 -17 116 205
141 316 32 139 31 154 -11 202 -21 24 -47 51 -58 61 -67 61 -85 76 -130 107
-61 43 -180 105 -251 131 -31 12 -59 30 -69 46 -55 84 -219 219 -349 289 l-59
32 55 26 c79 37 89 52 90 128 0 34 -3 82 -6 105 -8 58 -50 168 -90 233 -18 30
-41 71 -51 90 -24 48 -46 67 -107 91 -39 15 -68 20 -110 17 l-57 -4 22 30 c12
17 27 37 34 44 7 7 29 40 49 73 28 45 50 67 83 84 25 13 66 44 90 69 24 25 48
43 53 40 5 -3 15 0 23 6 12 10 15 10 15 -1 -1 -55 -31 -80 -72 -58 -21 11 -22
11 -10 -4 8 -9 23 -17 34 -19 18 -3 16 -7 -17 -41 -50 -51 -103 -83 -167 -101
-40 -11 -46 -14 -24 -15 50 -2 151 56 210 120 30 33 59 59 64 59 14 0 72 89
72 110 0 10 9 38 21 64 11 26 22 71 23 100 2 30 6 58 9 63 3 5 1 15 -5 23 -8
12 -8 11 -3 -5 4 -13 3 -17 -4 -10 -5 6 -12 26 -15 47 -10 63 -85 259 -123
318 l-16 25 23 -20 23 -20 -12 23 c-6 12 -19 22 -29 22 -13 0 -14 2 -3 9 7 5
9 10 4 12 -5 2 -24 27 -43 54 -18 28 -44 60 -57 73 -13 12 -21 22 -18 22 20 0
-213 220 -282 267 -97 66 -102 57 67 127 63 27 119 52 125 57 5 5 15 9 21 9 7
0 47 16 88 35 42 19 78 35 81 35 2 0 30 12 62 26 32 14 73 32 91 40 17 8 47
20 65 28 171 76 199 87 204 82 3 -2 26 5 51 17 26 11 61 20 79 18 20 -1 40 5
51 16 11 10 56 50 100 88 62 53 81 76 82 96 0 26 -35 73 -49 65 -4 -3 -41 -12
-82 -20 -104 -22 -120 -24 -151 -25 -20 -1 -34 -11 -50 -36 -17 -25 -43 -43
-103 -69 -105 -46 -336 -144 -450 -191 -102 -41 -117 -48 -233 -99 -46 -20
-88 -36 -92 -36 -5 0 -7 11 -4 24 6 36 -24 116 -59 156 -33 38 -163 140 -178
140 -5 0 -12 0 -15 -1 -4 0 -10 3 -13 8 -22 34 -321 185 -487 247 -160 59
-334 138 -392 178 -51 35 -181 163 -249 245 -40 48 -41 51 -26 72 16 24 17 23
-41 63 -7 5 -1 16 16 30 48 40 78 141 41 137 -10 -1 -21 -1 -26 0 -4 0 17 30
47 65 30 35 57 73 61 85 7 24 -1 42 -18 40 -37 -4 -38 4 -3 39 41 40 82 112
87 152 4 24 2 25 -44 23 l-47 -2 15 27 c9 15 36 59 60 97 43 67 103 230 90
243 -3 4 -26 -1 -51 -10 -53 -19 -62 -11 -27 22 50 48 133 202 133 249 0 9 9
36 21 60 26 58 34 111 18 111 -14 0 -97 -50 -150 -92 -20 -15 -40 -28 -43 -28
-4 0 11 24 32 53 81 111 114 175 156 304 25 79 37 136 41 203 3 51 7 97 8 103
1 6 -5 12 -13 14 -9 2 -39 -23 -70 -58z m285 -2472 c93 -13 295 -102 295 -130
0 -5 7 -7 15 -4 19 8 119 -67 172 -129 42 -48 74 -103 89 -154 6 -23 5 -24
-10 -11 -10 8 -28 36 -41 61 -41 80 -137 193 -190 222 -11 6 10 -19 47 -56 58
-58 138 -166 122 -166 -2 0 -28 17 -57 39 -106 78 -237 135 -327 140 -8 1 -37
22 -65 47 -62 57 -203 164 -216 164 -5 0 -9 4 -9 9 0 5 30 1 68 -9 37 -10 85
-20 107 -23z m-2855 -56 c0 -5 -28 -32 -62 -61 -99 -81 -160 -135 -225 -198
l-61 -59 -33 14 c-41 17 -76 49 -95 86 -23 43 -3 97 51 145 l45 39 122 6 c146
7 187 13 256 36 1 1 2 -3 2 -8z m-635 -133 c10 -43 97 -149 159 -193 44 -31
47 -35 21 -29 -43 11 -111 42 -122 56 -6 7 -16 31 -23 53 -7 22 -17 44 -22 50
-5 5 -2 -10 7 -34 22 -64 19 -69 -19 -32 -52 51 -64 85 -41 127 23 42 31 43
40 2z m736 -35 c-22 -75 -71 -174 -102 -205 -16 -16 -21 -16 -54 -2 -20 8 -42
13 -47 12 -6 -2 8 -10 31 -16 22 -7 41 -17 41 -22 0 -14 -6 -13 -49 10 -21 10
-42 16 -45 12 -4 -3 -4 1 0 11 5 13 2 16 -10 11 -9 -3 -22 -1 -30 5 -7 6 -16
8 -19 4 -4 -3 -7 2 -7 12 0 27 60 78 116 98 27 9 78 35 114 57 36 22 66 39 67
40 1 0 -2 -12 -6 -27z m3459 -67 c81 -65 121 -127 125 -194 l3 -50 -47 -18
c-25 -9 -52 -21 -59 -27 -11 -8 -12 -5 -6 19 4 16 10 36 14 44 35 68 -5 167
-104 258 -25 23 -46 45 -46 48 0 9 55 -27 120 -80z m-3697 -225 c15 -14 27
-28 27 -32 0 -4 -19 -38 -42 -74 -49 -79 -56 -74 -65 44 -7 99 -2 116 29 99
13 -7 35 -24 51 -37z m-210 -348 c11 -13 15 -23 9 -23 -15 0 -53 42 -76 83
l-18 32 33 -35 c18 -19 41 -45 52 -57z m4247 -169 c100 -67 145 -114 183 -191
77 -155 102 -311 65 -395 l-18 -41 -23 19 c-22 19 -22 19 -4 -2 19 -23 22 -34
8 -34 -9 0 -21 27 -27 56 -1 6 -23 39 -48 74 -25 34 -46 72 -47 84 0 11 -2 28
-4 36 -2 8 -6 31 -9 50 -11 57 -64 203 -96 262 -17 30 -48 76 -70 101 -22 25
-40 48 -40 51 0 9 56 -21 130 -70z m-4126 -413 c-5 -6 -44 30 -55 51 -5 9 -6
24 -3 33 5 12 13 4 34 -32 15 -26 26 -50 24 -52z m4270 -212 c18 -59 -5 -118
-30 -77 -4 6 -3 8 4 4 6 -3 13 -2 17 4 3 5 0 10 -7 10 -10 0 -14 17 -15 61 -2
69 10 68 31 -2z m181 -232 c-16 -34 -65 -88 -65 -72 0 4 5 25 11 46 9 28 16
36 28 32 9 -4 13 -3 9 2 -7 8 23 37 30 30 2 -2 -4 -19 -13 -38z m-2480 -231
c17 -3 46 -8 65 -11 19 -3 69 -12 110 -20 41 -8 91 -17 110 -20 19 -4 48 -13
64 -21 16 -8 32 -12 34 -9 3 3 -1 5 -8 5 -7 0 -11 2 -8 5 3 3 52 -10 109 -30
57 -19 111 -37 119 -40 36 -9 267 -88 288 -98 35 -17 26 -24 -28 -21 -28 1
-49 -1 -46 -3 3 -3 -9 -15 -26 -27 -81 -55 -96 -135 -38 -207 18 -23 37 -59
42 -82 10 -47 76 -148 121 -186 33 -29 126 -81 143 -81 6 0 17 -6 23 -14 14
-17 85 -35 165 -42 81 -7 86 -9 86 -36 0 -30 45 -127 72 -155 25 -27 21 -34
-19 -35 -47 -1 -69 11 -99 53 -74 107 -220 202 -328 215 -53 6 -59 10 -97 58
-23 28 -52 74 -66 103 -13 28 -40 69 -58 90 -19 22 -37 53 -41 69 -18 76 -79
152 -163 205 -56 36 -65 36 -58 0 6 -30 -15 -110 -38 -144 -11 -16 -13 -16
-18 -2 -4 8 -14 15 -23 15 -28 0 -207 61 -279 96 -100 48 -156 65 -233 69 -65
3 -123 -12 -138 -37 -16 -25 -30 -106 -23 -126 10 -25 11 -25 -27 -13 -16 5
-48 14 -71 21 -46 14 -50 23 -32 67 55 133 96 200 168 268 29 28 72 69 96 92
45 43 55 45 150 29z m-1512 -115 c16 -10 29 -21 28 -25 0 -3 4 -18 8 -34 6
-18 4 -36 -3 -50 -10 -19 -112 -102 -125 -102 -3 0 -20 12 -36 28 -52 46 -96
74 -110 68 -17 -6 -53 20 -42 31 7 7 234 101 247 102 3 1 18 -8 33 -18z m1473
-333 c-16 -6 -38 -18 -48 -27 -24 -20 -42 -51 -30 -51 6 0 12 8 14 18 8 29 93
65 147 63 64 -2 219 -64 285 -114 18 -14 17 -15 -20 -28 -46 -15 -53 -17 -124
-25 -110 -14 -148 -8 -237 37 -47 23 -87 48 -90 55 -8 23 24 63 60 73 46 13
80 12 43 -1z m805 -231 c11 -22 19 -40 17 -42 -2 -2 -20 11 -41 30 -29 26 -37
40 -37 67 l0 33 21 -25 c11 -14 29 -42 40 -63z m-1 -173 c0 -2 -17 -1 -37 1
-21 2 -41 4 -45 4 -4 1 -5 8 -3 16 3 8 7 22 10 30 4 13 12 9 40 -16 19 -18 35
-34 35 -35z m284 -47 c27 -11 75 -42 107 -67 57 -46 133 -129 125 -137 -3 -3
-146 101 -210 153 -10 9 -48 27 -85 41 -36 13 -70 29 -76 35 -17 17 83 -1 139
-25z m500 -8 c-6 -11 -24 -2 -24 11 0 5 7 7 15 4 8 -4 12 -10 9 -15z m49 -24
l39 -6 -18 -27 c-10 -14 -25 -35 -35 -45 -16 -18 -18 -18 -43 10 -37 39 -35
85 2 77 9 -1 34 -6 55 -9z m541 -194 c4 -7 -9 0 -28 15 -19 16 -35 33 -35 37
-1 12 56 -35 63 -52z m48 -73 c66 -71 37 -207 -54 -254 -39 -20 -122 -28 -111
-11 4 7 22 36 41 65 18 29 35 62 37 73 2 10 7 24 10 29 3 6 7 28 7 50 0 22 4
37 9 35 8 -6 -5 47 -17 67 -12 20 47 -22 78 -54z m61 -103 c0 -20 -4 -40 -9
-45 -5 -5 -9 12 -9 45 0 33 4 50 9 45 5 -5 9 -25 9 -45z m-4699 -2269 c9 -30
16 -62 16 -71 0 -10 -39 -57 -87 -104 -49 -48 -97 -104 -108 -124 -22 -41 -40
-50 -30 -14 18 63 18 63 35 172 8 52 18 86 30 95 9 9 24 29 32 45 10 19 29 33
54 41 22 7 40 12 41 13 1 1 9 -23 17 -53z"/>
<path d="M5679 8216 c-3 -3 -84 -15 -126 -18 -7 -1 -13 -5 -13 -10 0 -5 9 -7
20 -3 10 3 48 9 82 13 35 4 58 10 52 14 -6 4 -13 6 -15 4z"/>
<path d="M7860 6366 c0 -3 9 -10 20 -16 11 -6 20 -8 20 -6 0 3 -9 10 -20 16
-11 6 -20 8 -20 6z"/>
<path d="M7910 6336 c0 -2 7 -7 16 -10 8 -3 12 -2 9 4 -6 10 -25 14 -25 6z"/>
<path d="M7970 6310 c0 -5 5 -10 11 -10 5 0 7 5 4 10 -3 6 -8 10 -11 10 -2 0
-4 -4 -4 -10z"/>
<path d="M8070 6270 c0 -5 5 -10 11 -10 5 0 7 5 4 10 -3 6 -8 10 -11 10 -2 0
-4 -4 -4 -10z"/>
<path d="M8195 6220 c3 -5 8 -10 11 -10 2 0 4 5 4 10 0 6 -5 10 -11 10 -5 0
-7 -4 -4 -10z"/>
<path d="M9570 5209 c0 -5 5 -7 10 -4 6 3 10 8 10 11 0 2 -4 4 -10 4 -5 0 -10
-5 -10 -11z"/>
<path d="M9561 5142 c-11 -42 -54 -112 -73 -120 -4 -2 -8 -8 -8 -14 0 -16 37
20 60 57 26 43 51 113 41 119 -4 3 -13 -16 -20 -42z"/>
<path d="M5186 7943 c-5 -18 -22 -104 -30 -155 -3 -16 -1 -28 4 -28 5 0 8 8 8
18 -2 28 24 156 35 170 6 8 6 12 -1 12 -6 0 -13 -8 -16 -17z"/>
<path d="M9922 7228 c23 -46 50 -117 59 -158 10 -41 18 -64 18 -50 0 14 -5 48
-13 75 -14 53 -83 202 -98 211 -5 3 11 -32 34 -78z"/>
<path d="M8040 5402 c-14 -2 -29 -8 -35 -14 -7 -7 -7 -9 0 -5 6 3 38 9 70 12
33 4 62 9 65 12 4 4 -55 1 -100 -5z"/>
<path d="M8608 4994 c27 -39 99 -106 148 -136 47 -29 77 -42 69 -28 -3 6 -11
10 -16 10 -21 0 -106 64 -163 124 -33 33 -50 47 -38 30z"/>
<path d="M9181 4824 c-18 -8 -31 -17 -28 -20 5 -6 67 23 67 31 0 6 3 7 -39
-11z"/>
<path d="M8855 4810 c11 -5 27 -9 35 -9 9 0 8 4 -5 9 -11 5 -27 9 -35 9 -9 0
-8 -4 5 -9z"/>
<path d="M9110 4800 c-23 -7 -23 -8 -3 -9 12 -1 25 4 28 9 3 6 5 10 3 9 -2 -1
-14 -5 -28 -9z"/>
<path d="M8910 4797 c8 -8 90 -15 85 -8 -2 4 -23 8 -47 10 -23 1 -40 0 -38 -2z"/>
<path d="M9010 4791 c0 -8 56 -9 63 -1 3 3 -10 6 -29 6 -19 1 -34 -2 -34 -5z"/>
</g>
</svg>
